<?xml version="1.0" encoding="UTF-8" standalone="no"?>
<svg width="949px" height="289px" viewBox="0 0 949 289" version="1.1" xmlns="http://www.w3.org/2000/svg" xmlns:xlink="http://www.w3.org/1999/xlink">
    <defs></defs>
    <g id="Page-1" stroke="none" stroke-width="1" fill="none" fill-rule="evenodd">
        <g id="Desktop-HD" transform="translate(-289.000000, -245.000000)">
            <g id="trophy-+-GOLDEN-STATE-WARRIOR-+-CONGRATS" transform="translate(289.000000, 246.000000)">
                <g id="trophy" transform="translate(816.000000, 0.000000)">
                    <path d="M70.1267834,107.934322 C72.0178539,108.03954 73.1881188,108.116438 73.1881188,108.116438 C73.1881188,108.116438 86.1225868,110.997852 92.5898208,112.110933 C100.716646,113.509648 116.970297,115.651826 116.970297,115.651826 L116.970297,127.118721 C116.970297,127.118721 118.930693,126.791096 118.930693,130.394977 C118.930693,133.998858 116.970297,133.998858 116.970297,133.998858 L115.336634,203.783105 L131.673267,207.059361 L131.673267,215.577626 L97.039604,287 L6.53465347,256.858447 L6.20792079,248.340183 L58.1584158,191.005708 L65.019802,192.971461 L45.0891089,118.600457 C45.0891089,118.600457 38.1910836,110.743621 41.520781,108.437866 C17.6672489,102.451518 0,80.815149 0,55.0410959 C0,24.642738 24.5755777,0 54.8910891,0 C85.2066005,0 109.782178,24.642738 109.782178,55.0410959 C109.782178,80.1386092 93.0302472,101.312807 70.1267834,107.934322 Z" id="outline" stroke="#C39200" stroke-width="2" stroke-linecap="round" stroke-linejoin="round" fill="#F1B400"></path>
                    <g id="Base" transform="translate(6.534653, 132.360731)">
                        <path d="M0,116.634703 L90.1782178,146.383105 L90.5049505,153.984018 L0,123.905142 L0,116.634703 Z" id="Path-63" fill="#FFD33E"></path>
                        <path d="M61.4257426,65.5251142 L15.6831683,121.261784 L15.6831683,129.084475" id="Path-55" stroke="#C39200"></path>
                        <path d="M50.8044924,62.9041096 L62.0792079,65.5251142 L39.8613861,91.7351598 C39.8613861,91.7351598 41.5194325,87.4760274 42.5142604,86.1655251 C43.5090882,84.8550228 49.146446,76.0091324 49.146446,75.0262557 C49.146446,74.043379 50.4728831,71.75 49.4780553,70.7671233 C48.4832274,69.7842466 44.8355253,69.456621 44.8355253,69.456621 L50.8044924,62.9041096 Z" id="Path-56" fill="#C39200"></path>
                        <path d="M66.6534653,81.9063927 L32.6732673,127.118721 L32.6732673,134.981735" id="Path-57" stroke="#CE9A00"></path>
                        <path d="M62.4059406,67.4908676 L42.4752475,91.7351598 L45.0891089,91.7351598 C45.0891089,91.7351598 46.8861386,90.4246575 49.6633663,90.4246575 C52.4405941,90.4246575 58.1584158,90.7522831 58.8118812,92.390411 C60.4455446,90.4246575 66.6534653,82.5616438 66.6534653,82.5616438 L62.4059406,67.4908676 Z" id="Path-58" fill="#C39200"></path>
                        <path d="M49.6633663,140.878995 L49.6633663,132.688356 L71.2277228,100.908676" id="Path-59" stroke="#C39200"></path>
                        <path d="M44.4356436,114.341324 L59.4653465,95.0114155 C59.4653465,95.0114155 60.1188119,94.0285388 61.0990099,94.0285388 C62.0792079,94.0285388 64.039604,96.3219178 64.039604,97.6324201 C64.039604,98.9429224 49.3366337,133.015982 49.3366337,133.015982 L71.2277228,101.236301 C71.2277228,101.236301 67.6336634,96.9771689 67.6336634,93.3732877 C67.6336634,89.7694064 68.2871287,89.1141553 68.2871287,89.1141553 C68.2871287,89.1141553 69.5940594,92.390411 70.9009901,93.7009132 C72.2079208,95.0114155 77.7623762,99.9257991 83.3168317,100.908676 C88.8712871,101.891553 101.287129,101.236301 101.287129,101.236301 L108.475248,0.982876712 L99.980198,0 L97.039604,93.3732877 L98.3465347,94.68379 L98.3465347,95.6666667 C98.3465347,95.6666667 74.4950495,96.6495434 66.6534653,84.5273973 C62.7326733,89.1141553 44.4356436,114.341324 44.4356436,114.341324 Z" id="Path-60" fill="#C39200"></path>
                        <path d="M72.7400283,102.219178 C72.7400283,102.219178 76.3569534,105.296431 78.6772277,106.478311 C80.6449308,107.480601 85.6039604,108.771689 85.6039604,108.771689 L67.7923621,138.913242 L51.6237624,133.671233 L72.7400283,102.219178 Z" id="Path-61" fill="#C39200"></path>
                        <path d="M86.9108911,109.241701 L102.267327,109.899717 L100.633663,123.718051 L92.7920792,142.142497 L124.485149,75.3538813 L124.811881,83.5790802 L90.1782178,153.984018 L90.1782178,146.4196 L69.2673267,139.510433 L86.9108911,109.241701 Z" id="Path-62" fill="#C39200"></path>
                        <path d="M67.3069307,138.257991 L67.3069307,146.776256" id="Path-64" stroke="#C39200"></path>
                        <path d="M71.2277228,141.698059 C69.6917353,142.057436 69.2673267,145.301941 69.2673267,145.301941 L69.2673267,139.568493 L79.0693069,142.844749 C79.0693069,142.844749 72.9590621,141.292976 71.2277228,141.698059 Z" id="Path-65" fill-opacity="0.349999994" fill="#FFFFFF"></path>
                        <path d="M53.5841584,135.964612 C52.048171,136.323988 51.6237624,139.568493 51.6237624,139.568493 L51.6237624,133.671233 L62.4059406,137.275114 C62.4059406,137.275114 55.3154977,135.559529 53.5841584,135.964612 Z" id="Path-65-Copy" fill-opacity="0.349999994" fill="#FFFFFF"></path>
                        <path d="M36.5940594,130.067352 C35.058072,130.426728 34.6336634,133.671233 34.6336634,133.671233 L34.6336634,128.101598 L44.4356436,131.377854 C44.4356436,131.377854 38.3253987,129.662268 36.5940594,130.067352 Z" id="Path-65-Copy-2" fill-opacity="0.349999994" fill="#FFFFFF"></path>
                        <path d="M19.6039604,124.497717 C18.0679729,124.857093 17.6435644,128.101598 17.6435644,128.101598 L17.6435644,122.531963 L27.4455446,125.808219 C27.4455446,125.808219 21.3352997,124.092634 19.6039604,124.497717 Z" id="Path-65-Copy-3" fill-opacity="0.349999994" fill="#FFFFFF"></path>
                        <path d="M3.92079208,119.747146 C2.38480463,120.106523 1.96039604,123.351027 1.96039604,123.351027 L1.96039604,117.289954 L12.7425743,120.893836 C12.7425743,120.893836 5.65213136,119.342063 3.92079208,119.747146 Z" id="Path-65-Copy-4" fill-opacity="0.349999994" fill="#FFFFFF"></path>
                    </g>
                    <path d="M50.970297,120.56621 L60.7722772,124.170091 L78.0891089,220.164384 L74.8217822,215.25 L50.970297,120.56621 Z" id="Path-154" fill="#C39200"></path>
                    <path d="M45.4158416,111.72032 C45.4158416,111.72032 46.0693069,117.289954 59.7920792,120.893836 C65.8753151,122.491418 77.2842304,124.964779 87.8910891,126.46347 C101.211546,128.345578 118.60396,129.084475 118.60396,129.084475 L116.970297,126.791096 L116.970297,116.307078 L68.2871287,107.788813 L63.7128713,108.444064 C63.7128713,108.444064 67.6336634,108.771689 69.2673267,109.754566 C70.9009901,110.737443 74.1683168,113.030822 74.1683168,115.324201 C74.1683168,117.61758 93.7722772,114.013699 93.7722772,114.013699 L98.3465347,114.341324 C98.3465347,114.341324 105.534653,114.996575 106.514851,115.979452 C107.49505,116.962329 107.49505,117.945205 105.534653,118.600457 C103.574257,119.255708 85.6039604,119.910959 82.990099,119.255708 C80.3762376,118.600457 77.4356436,117.289954 75.8019802,117.289954 C74.1683168,117.289954 75.1485149,118.928082 72.8613861,118.928082 C70.5742574,118.928082 57.8316832,116.307078 55.2178218,115.324201 C52.6039604,114.341324 45.4158416,111.72032 45.4158416,111.72032 Z" id="Path-155" fill="#C39200"></path>
                    <path d="M115.663366,119.583333 L115.990099,117.289954 C115.990099,117.289954 106.841584,118.272831 106.188119,122.204338 C105.534653,126.135845 115.663366,129.084475 115.663366,129.084475 C115.663366,129.084475 106.841584,125.480594 107.168317,122.204338 C107.49505,118.928082 115.663366,119.583333 115.663366,119.583333 Z" id="Path-156" fill="#F1B400"></path>
                    <path d="M75.4752475,128.101598 C75.4752475,128.101598 81.1166898,129.051078 84.2970297,129.4121 C86.888967,129.706329 92.7920792,130.067352 92.7920792,130.067352 L93.7722772,226.716895 C93.7722772,226.716895 91.0787161,226.318016 89.8514851,226.061644 C88.4648548,225.771973 85.9306931,225.078767 85.9306931,225.078767 L75.4752475,128.101598 Z" id="Path-157" fill="#FFD33E"></path>
                    <g id="Ball" transform="translate(15.683168, 20.968037)">
                        <path d="M12.0891089,30.4691781 C12.0891089,30.4691781 6.20792079,57.6621005 33.980198,81.2511416 C54.5643583,82.8892694 70.9009901,65.1974886 70.9009901,65.1974886 L74.8217822,68.4737443 C74.8217822,68.4737443 61.0990099,83.8721461 39.5346535,84.5273973 C40.8415835,85.8378995 41.1683168,86.1655251 41.1683168,86.1655251 L38.8811881,86.4931507 C38.8811881,86.4931507 5.55445544,69.7842466 12.0891089,30.4691781 Z" id="Path-158" fill="#C39200"></path>
                        <path d="M0.326732673,0 L4.58680553,4.27171482" id="Path-159" stroke="#C39200" stroke-width="2"></path>
                        <path d="M7.84158416,6.55251142 L16.990099,14.4155251" id="Path-160" stroke="#C39200" stroke-width="2"></path>
                        <path d="M19.9306931,17.0365297 L82.009901,68.8013699" id="Path-161" stroke="#C39200" stroke-width="2"></path>
                    </g>
                    <path d="M89.8514851,82.5616438 C89.8514851,82.5616438 100.960396,71.0947489 102.267327,49.4714612 C104.227723,52.0924658 105.861386,54.0582192 105.861386,54.0582192 C105.861386,54.0582192 105.207921,72.0776256 94.0990099,85.8378995 C92.1386139,84.1997717 89.8514851,82.5616438 89.8514851,82.5616438 Z" id="Path-162" fill="#C39200"></path>
                    <path d="M43.7821782,102.219178 L47.3762376,105.167808 C47.3762376,105.167808 2.61386158,105.167808 12.0891089,49.1438356 C5.22772305,102.874429 43.7821782,102.219178 43.7821782,102.219178 Z" id="Path-163" fill="#C39200"></path>
                    <path d="M13.7227723,23.2614155 L18.950495,28.1757991 C18.950495,28.1757991 -1.30693058,54.0582192 13.7227725,87.803653" id="Path-164" stroke="#FFD33E" stroke-width="2"></path>
                    <path d="M21.5643564,29.8139269 L31.3663366,38.3321918 C31.3663366,38.3321918 5.88118812,66.8356164 48.029703,105.495434 C39.2079208,105.495434 29.0792079,101.563927 19.9306931,94.0285388" id="Path-165" stroke="#FFD33E" stroke-width="2"></path>
                    <path d="M21.2376238,26.8652968 C21.2376238,26.8652968 39.2079208,6.55251142 61.0990099,6.55251142 C39.2079208,4.58675796 20.2574257,25.8824201 20.2574257,25.8824201 L21.2376238,26.8652968 Z" id="Path-166" fill="#FFD33E"></path>
                    <path d="M55.2178218,105.495434 C55.2178218,105.495434 65.6732673,104.840183 74.4950495,100.908676 C83.3168317,96.9771689 90.5049505,89.4417808 90.5049505,89.4417808 L33.3267327,40.6255708 L33.980198,39.6426941 L93.1188119,89.4417808 C93.1188119,89.4417808 84.2970297,97.3047945 75.4752475,101.891553 C66.6534653,106.478311 56.1980198,106.478311 56.1980198,106.478311 L55.2178218,105.495434 Z" id="Path-167" fill="#FFD33E"></path>
                    <path d="M68.9405939,111.065068 C70.8291476,111.663084 72.5346535,113.686073 72.5346535,114.996575 C72.5346535,116.307078 71.8811881,116.962329 71.8811881,116.962329 C71.8811881,116.962329 69.9207921,117.61758 68.9405941,117.289954 C67.960396,116.962329 68.2871287,115.651826 67.960396,115.324201 C67.6336634,114.996575 66,114.013699 66.3267327,113.030822 C66.6534653,112.047945 67.0520402,110.467053 68.9405939,111.065068 Z" id="Path-111" fill="#FFD33E"></path>
                    <path d="M61.7524752,116.307078 C65.6732673,116.634703 60.4455446,114.996575 61.4257426,112.703196 C62.4059406,110.409817 64.3663369,112.254182 64.3663369,111.392694 C64.3663369,110.531206 62.4059406,109.426941 61.4257426,109.426941 C60.4455445,109.426941 57.0124788,109.448904 56.5247525,109.754566 C56.0370262,110.060228 58.4851486,111.065068 58.4851486,111.065068 C58.4851486,111.065068 55.1001426,110.746081 56.1980198,112.703196 C57.295897,114.660312 57.8316832,115.979452 61.7524752,116.307078 Z" id="Path-112" fill="#C39200"></path>
                    <path d="M93.7722772,85.8379007 C93.7722772,85.8379007 101.940594,77.9748871 105.861386,54.0582204 C86.5841584,28.1758003 62.0792079,29.4863014 62.0792079,29.4863014 C62.0792079,29.4863014 88.2178218,26.2100451 107.49505,54.385846 C106.188119,75.0262581 95.4059406,87.148403 95.4059406,87.148403 L93.7722772,85.8379007 Z" id="Path-113" fill="#FFD33E"></path>
                    <path d="M32.3465347,36.0388128 L33.3267327,37.0216895 C33.3267327,37.0216895 45.4158416,25.5547945 58.4851485,26.5376712 C43.1287129,25.2271689 32.3465347,36.0388128 32.3465347,36.0388128 Z" id="Path-114" fill="#FFD33E"></path>
                    <path d="M105.861386,47.1780822 C106.841584,48.81621 106.841584,48.4885845 108.148515,50.7819635 C106.841584,29.4863014 92.7920792,17.0365297 92.7920792,17.0365297 C92.7920792,17.0365297 105.534653,32.4349315 105.861386,47.1780822 Z" id="Path-115" fill="#FFD33E"></path>
                    <path d="M81.6831683,10.8116438 C105.207921,22.2785388 105.861386,47.1780822 105.861386,47.1780822 L108.148515,50.7819635 L108.148515,52.4200913 C108.148515,52.4200913 87.8910891,18.0194064 43.7821782,28.8310502 C76.782177,17.3641553 98.3465347,39.6426941 101.287129,41.9360731 C100.633663,37.0216895 100.633663,24.8995437 81.6831683,10.8116438 Z" id="Path-116" fill="#C39200"></path>
                    <path d="M110.108911,226.389269 L113.049505,216.232877 L125.792079,219.181507 L129.386139,211.318493 L114.683168,208.042237 L116.643564,137.275114 L110.108911,226.389269 Z" id="Path-117" fill="#C39200"></path>
                    <path d="M86.5841584,10.4840182 C80.7029703,9.50114142 70.9009901,0.982876712 42.1485149,10.4840183 C56.8514844,3.60388128 64.039604,5.08033695 66.980198,4.91438356 C53.9108911,2.62100458 19.9306931,-2.2933822 2.94059406,38.0045654 C29.7326733,-21.2956628 86.5841584,7.20776257 86.5841584,10.4840182 Z" id="Path-118" fill="#C39200"></path>
                    <path d="M66,128.756849 C66,128.756849 69.2673267,128.101598 70.5742574,129.739726 C71.8811881,131.377854 88.8712871,184.453196 88.8712871,184.453196" id="Path-119" stroke="#C39200"></path>
                    <path d="M65.3465347,130.067352 C65.3465347,130.067352 68.6138614,129.4121 69.9207921,131.050228 C71.2277228,132.688356 87.5643564,184.780823 87.5643564,184.780823" id="Path-119-Copy" stroke="#C39200"></path>
                    <path d="M89.5247525,184.453196 C89.5247525,184.453196 92.7920792,169.38242 93.7722772,161.847032 C94.7524752,154.311644 96.3861386,140.223744 97.3663366,137.930365 C98.3465347,135.636986 100.306931,133.998858 100.306931,133.998858" id="Path-121" stroke="#B28600"></path>
                    <path d="M90.8316832,184.780822 C90.8316832,184.780822 94.0990099,170.037671 95.0792079,162.502283 C96.0594059,154.966895 97.6930693,140.878995 98.6732673,138.585616 C99.6534653,136.292237 100.633663,135.636986 100.633663,135.636986" id="Path-121-Copy" stroke="#B28600"></path>
                    <path d="M102.267327,134.981735 C102.267327,134.981735 105.534653,134.981735 106.841584,137.275114 C108.148515,139.568493 114.356436,177.573059 114.356436,177.573059" id="Path-123" stroke="#B28600"></path>
                    <path d="M102.267327,133.671233 C102.267327,133.671233 106.841584,133.671233 108.148515,135.964612 C109.455446,138.257991 114.683168,172.33105 114.683168,172.33105" id="Path-123-Copy" stroke="#B28600"></path>
                    <path d="M113.376238,189.695205 L104.227723,201.1621" id="Path-125" stroke="#B28600"></path>
                    <path d="M113.376238,192.31621 L105.534653,201.817352" id="Path-126" stroke="#B28600"></path>
                    <path d="M111.415842,211.973744 C111.415842,211.973744 105.861386,206.40411 105.861386,205.748858" id="Path-127" stroke="#B28600"></path>
                    <path d="M111.415842,213.939498 C111.415842,213.939498 104.554455,207.714612 104.554455,206.40411" id="Path-128" stroke="#B28600"></path>
                    <path d="M102.920792,205.421233 L95.4059406,214.922374" id="Path-129" stroke="#B28600"></path>
                    <path d="M103.90099,206.40411 L97.039604,215.25" id="Path-130" stroke="#B28600"></path>
                    <path d="M97.4250464,218.526256 C97.4250464,218.526256 99.3267327,220.164384 98.6732673,220.819635 C98.019802,221.474886 96.3861386,218.853881 96.3861386,218.853881" id="Path-131" stroke="#B28600"></path>
                    <path d="M94.4257426,218.19863 C94.4257426,218.19863 92.1386139,219.836758 92.7920792,220.492009 C93.4455446,221.14726 95.4059406,218.853881 95.4059406,218.853881" id="Path-132" stroke="#B28600"></path>
                    <path d="M83.970297,203.127854 L95.4059406,214.594749" id="Path-133" stroke="#B28600"></path>
                    <path d="M82.6633663,203.783105 L94.4257426,215.577626" id="Path-134" stroke="#B28600"></path>
                    <path d="M83.6435644,199.851598 C83.6435644,199.851598 89.1980198,190.678082 89.1980198,189.695205 L89.1980198,188.057078" id="Path-135" stroke="#B28600"></path>
                    <path d="M82.6633663,199.196347 C82.6633663,199.196347 87.8910891,190.678082 87.8910891,189.695205 L87.8910891,187.729452" id="Path-135-Copy" stroke="#B28600"></path>
                    <path d="M75.1485149,214.594749 L82.3366337,203.455479" id="Path-137" stroke="#B28600"></path>
                    <path d="M81.029703,203.127854 L74.4950495,212.956621" id="Path-138" stroke="#B28600"></path>
                    <path d="M82.009901,199.196347 C82.009901,199.196347 72.5346535,188.384703 71.2277228,186.746575 C69.9207921,185.108447 67.960396,183.797945 67.960396,183.797945" id="Path-139" stroke="#B28600"></path>
                    <path d="M80.7029703,199.851598 C80.7029703,199.851598 71.2277228,189.039954 69.9207921,187.401826 C68.6138614,185.763699 66,184.125571 66,184.125571" id="Path-139-Copy" stroke="#B28600"></path>
                    <path d="M91.1584158,187.401826 L103.574257,201.1621" id="Path-141" stroke="#B28600"></path>
                    <path d="M89.8514851,187.729452 L102.594059,202.472603" id="Path-142" stroke="#B28600"></path>
                    <path d="M65.019802,131.377854 L68.9405941,181.832192" id="Path-143" stroke="#B28600"></path>
                    <path d="M63.7128713,130.722603 L67.3069307,180.849315" id="Path-144" stroke="#B28600"></path>
                    <path d="M66.980198,180.849315 L49.6633663,133.998858" id="Path-145" stroke="#B28600"></path>
                    <path d="M65.6732673,181.176941 L52.9306931,146.121005" id="Path-146" stroke="#B28600"></path>
                    <ellipse id="Oval-6" stroke="#B28600" cx="96.0594059" cy="216.888128" rx="1.96039604" ry="1.96575342"></ellipse>
                    <ellipse id="Oval-7" stroke="#B28600" cx="66.980198" cy="182.487443" rx="2.28712871" ry="1.63812785"></ellipse>
                    <ellipse id="Oval-4" stroke="#B28600" cx="102.267327" cy="134.326484" rx="2.28712871" ry="1.96575342"></ellipse>
                    <ellipse id="Oval-4-Copy" stroke="#B28600" cx="65.6732673" cy="129.739726" rx="2.28712871" ry="1.96575342"></ellipse>
                    <ellipse id="Oval-5" stroke="#B28600" cx="104.227723" cy="203.783105" rx="2.28712871" ry="2.62100457"></ellipse>
                    <ellipse id="Oval-3" stroke="#C39200" cx="82.6633663" cy="201.489726" rx="2.28712871" ry="2.293379"></ellipse>
                    <ellipse id="Oval-2" stroke="#C39200" cx="89.1980198" cy="186.091324" rx="2.28712871" ry="1.96575342"></ellipse>
                </g>
                <path d="M37.822,119.504 L37.822,143.696 C37.822,151.472039 41.3739645,155.36 48.478,155.36 C53.9500274,155.36 57.5499914,152.768026 59.278,147.584 C59.7580024,145.951992 60.3579964,144.848003 61.078,144.272 C61.7980036,143.695997 62.9739918,143.408 64.606,143.408 L93.982,143.408 C94.8460043,143.408 95.5899969,143.719997 96.214,144.344 C96.8380031,144.968003 97.15,145.711996 97.15,146.576 C97.15,154.928042 94.750024,161.935972 89.95,167.6 C81.1179558,178.160053 67.3420936,183.44 48.622,183.44 C33.9339266,183.44 22.2220437,180.200032 13.486,173.72 C4.74995632,167.239968 0.382,157.280067 0.382,143.84 L0.382,119.36 C0.382,106.207934 4.84595536,96.3200331 13.774,89.696 C22.7020446,83.0719669 34.3179285,79.76 48.622,79.76 C67.3420936,79.76 81.1179558,85.0399472 89.95,95.6 C94.750024,101.264028 97.15,108.271958 97.15,116.624 C97.15,117.488004 96.8380031,118.231997 96.214,118.856 C95.5899969,119.480003 94.8460043,119.792 93.982,119.792 L64.606,119.792 C63.0699923,119.792 61.9420036,119.504003 61.222,118.928 C60.5019964,118.351997 59.8540029,117.248008 59.278,115.616 C57.4539909,110.431974 53.8540269,107.84 48.478,107.84 C41.3739645,107.84 37.822,111.727961 37.822,119.504 L37.822,119.504 Z M151.046,79.76 C165.542072,79.76 177.181956,83.3359642 185.966,90.488 C194.750044,97.6400358 199.142,107.695935 199.142,120.656 L199.142,143.12 C199.142,156.272066 194.798043,166.279966 186.11,173.144 C177.421957,180.008034 165.734073,183.44 151.046,183.44 C136.357927,183.44 124.670043,180.008034 115.982,173.144 C107.293957,166.279966 102.95,156.272066 102.95,143.12 L102.95,120.656 C102.95,107.599935 107.341956,97.5200355 116.126,90.416 C124.910044,83.3119645 136.549928,79.76 151.046,79.76 L151.046,79.76 Z M151.046,155.36 C154.310016,155.36 156.90199,154.40001 158.822,152.48 C160.74201,150.55999 161.702,147.63202 161.702,143.696 L161.702,119.504 C161.702,115.663981 160.74201,112.76001 158.822,110.792 C156.90199,108.82399 154.310016,107.84 151.046,107.84 C147.781984,107.84 145.19001,108.82399 143.27,110.792 C141.34999,112.76001 140.39,115.663981 140.39,119.504 L140.39,143.696 C140.39,147.63202 141.34999,150.55999 143.27,152.48 C145.19001,154.40001 147.781984,155.36 151.046,155.36 L151.046,155.36 Z M265.75,81.2 L291.814,81.2 C292.870005,81.2 293.781996,81.5839962 294.55,82.352 C295.318004,83.1200038 295.702,84.0319947 295.702,85.088 L295.702,178.112 C295.702,179.168005 295.318004,180.079996 294.55,180.848 C293.781996,181.616004 292.870005,182 291.814,182 L269.062,182 C266.565988,182 264.598007,180.896011 263.158,178.688 L238.822,141.968 L238.822,178.112 C238.822,179.168005 238.438004,180.079996 237.67,180.848 C236.901996,181.616004 235.990005,182 234.934,182 L208.87,182 C207.813995,182 206.902004,181.616004 206.134,180.848 C205.365996,180.079996 204.982,179.168005 204.982,178.112 L204.982,85.088 C204.982,84.0319947 205.365996,83.1200038 206.134,82.352 C206.902004,81.5839962 207.813995,81.2 208.87,81.2 L231.622,81.2 C234.310013,81.2 236.277994,82.303989 237.526,84.512 L261.862,124.4 L261.862,85.088 C261.862,84.0319947 262.245996,83.1200038 263.014,82.352 C263.782004,81.5839962 264.693995,81.2 265.75,81.2 L265.75,81.2 Z M356.118,121.232 L395.718,121.232 C396.774005,121.232 397.685996,121.615996 398.454,122.384 C399.222004,123.152004 399.606,124.063995 399.606,125.12 L399.606,143.84 C399.606,156.512063 395.094045,166.279966 386.07,173.144 C377.045955,180.008034 365.022075,183.44 349.998,183.44 C334.973925,183.44 323.142043,180.104033 314.502,173.432 C305.861957,166.759967 301.542,156.752067 301.542,143.408 L301.542,119.216 C301.542,106.447936 305.957956,96.6800338 314.79,89.912 C323.622044,83.1439662 335.405926,79.76 350.142,79.76 C364.878074,79.76 376.805954,82.855969 385.926,89.048 C395.046046,95.240031 399.606,102.847955 399.606,111.872 C399.606,112.736004 399.294003,113.479997 398.67,114.104 C398.045997,114.728003 397.302004,115.04 396.438,115.04 L364.614,115.04 C362.69399,115.04 361.302004,114.512005 360.438,113.456 C358.51799,110.959988 357.078005,109.520002 356.118,109.136 C353.909989,108.271996 351.894009,107.84 350.07,107.84 C342.677963,107.84 338.982,111.439964 338.982,118.64 L338.982,143.12 C338.982,151.280041 342.917961,155.36 350.79,155.36 C358.85404,155.36 362.886,151.904035 362.886,144.992 L356.118,144.992 C355.061995,144.992 354.150004,144.608004 353.382,143.84 C352.613996,143.071996 352.23,142.160005 352.23,141.104 L352.23,125.12 C352.23,124.063995 352.613996,123.152004 353.382,122.384 C354.150004,121.615996 355.061995,121.232 356.118,121.232 L356.118,121.232 Z M498.182,177.248 C498.470001,177.824003 498.614,178.447997 498.614,179.12 C498.614,179.792003 498.302003,180.439997 497.678,181.064 C497.053997,181.688003 496.310004,182 495.446,182 L465.926,182 C462.949985,182 460.886006,180.704013 459.734,178.112 L447.35,150.608 L441.446,150.608 L441.446,178.112 C441.446,179.168005 441.062004,180.079996 440.294,180.848 C439.525996,181.616004 438.614005,182 437.558,182 L409.334,182 C408.277995,182 407.366004,181.616004 406.598,180.848 C405.829996,180.079996 405.446,179.168005 405.446,178.112 L405.446,85.088 C405.446,84.0319947 405.829996,83.1200038 406.598,82.352 C407.366004,81.5839962 408.277995,81.2 409.334,81.2 L451.958,81.2 C465.782069,81.2 476.581961,84.295969 484.358,90.488 C492.134039,96.680031 496.022,105.559942 496.022,117.128 C496.022,128.696058 490.838052,137.791967 480.47,144.416 L498.182,177.248 Z M441.446,107.984 L441.446,123.248 L451.958,123.248 C454.070011,123.248 455.701994,122.552007 456.854,121.16 C458.006006,119.767993 458.582,118.016011 458.582,115.904 C458.582,113.791989 458.030006,111.944008 456.926,110.36 C455.821994,108.775992 454.166011,107.984 451.958,107.984 L441.446,107.984 Z M540.83,81.2 L572.078,81.2 C575.534017,81.2 577.693996,82.7839842 578.558,85.952 L610.67,177.824 C610.766,178.112001 610.814,178.567997 610.814,179.192 C610.814,179.816003 610.502003,180.439997 609.878,181.064 C609.253997,181.688003 608.510004,182 607.646,182 L581.006,182 C578.125986,182 576.254004,180.800012 575.39,178.4 L571.934,168.896 L540.974,168.896 L537.518,178.4 C536.653996,180.800012 534.782014,182 531.902,182 L505.262,182 C504.397996,182 503.654003,181.688003 503.03,181.064 C502.405997,180.439997 502.094,179.816003 502.094,179.192 C502.094,178.567997 502.142,178.112001 502.238,177.824 L534.35,85.952 C535.214004,82.7839842 537.373983,81.2 540.83,81.2 L540.83,81.2 Z M548.318,140.816 L564.59,140.816 L556.382,114.032 L548.318,140.816 Z M605.182,81.2 L689.566,81.2 C690.622005,81.2 691.533996,81.5839962 692.302,82.352 C693.070004,83.1200038 693.454,84.0319947 693.454,85.088 L693.454,108.272 C693.454,109.328005 693.070004,110.239996 692.302,111.008 C691.533996,111.776004 690.622005,112.16 689.566,112.16 L665.662,112.16 L665.662,178.112 C665.662,179.168005 665.278004,180.079996 664.51,180.848 C663.741996,181.616004 662.830005,182 661.774,182 L632.974,182 C631.917995,182 631.006004,181.616004 630.238,180.848 C629.469996,180.079996 629.086,179.168005 629.086,178.112 L629.086,112.16 L605.182,112.16 C604.125995,112.16 603.214004,111.776004 602.446,111.008 C601.677996,110.239996 601.294,109.328005 601.294,108.272 L601.294,85.088 C601.294,84.0319947 601.677996,83.1200038 602.446,82.352 C603.214004,81.5839962 604.125995,81.2 605.182,81.2 L605.182,81.2 Z M711.71,88.976 C719.822041,82.8319693 730.477934,79.76 743.678,79.76 C756.878066,79.76 767.677958,82.9759678 776.078,89.408 C784.478042,95.8400322 788.678,102.559965 788.678,109.568 C788.678,110.432004 788.366003,111.175997 787.742,111.8 C787.117997,112.424003 786.422004,112.736 785.654,112.736 L756.854,112.736 C754.645989,112.736 752.630009,111.920008 750.806,110.288 C748.981991,108.655992 746.534015,107.84 743.462,107.84 C738.853977,107.84 736.55,109.183987 736.55,111.872 C736.55,113.312007 737.677989,114.511995 739.934,115.472 C742.190011,116.432005 746.389969,117.295996 752.534,118.064 C766.838072,119.888009 777.03797,123.223976 783.134,128.072 C789.23003,132.920024 792.278,140.263951 792.278,150.104 C792.278,159.944049 787.790045,167.959969 778.814,174.152 C769.837955,180.344031 758.102072,183.44 743.606,183.44 C729.109928,183.44 717.734041,180.46403 709.478,174.512 C701.221959,168.55997 697.094,161.312043 697.094,152.768 C697.094,151.903996 697.405997,151.160003 698.03,150.536 C698.654003,149.911997 699.397996,149.6 700.262,149.6 L727.622,149.6 C729.63801,149.6 731.869988,150.55999 734.318,152.48 C736.766012,154.40001 740.149978,155.36 744.47,155.36 C751.670036,155.36 755.27,154.016013 755.27,151.328 C755.27,149.599991 753.974013,148.280005 751.382,147.368 C748.789987,146.455995 743.894036,145.520005 736.694,144.56 C711.925876,141.295984 699.542,130.736089 699.542,112.88 C699.542,103.087951 703.597959,95.1200307 711.71,88.976 L711.71,88.976 Z" id="CONGRATS" fill="#FFFFFF"></path>
                <path d="M37.793457,241.166992 L37.793457,232.706055 C37.0883754,234.171882 36.2070365,235.447504 35.1494141,236.532959 C34.0917916,237.618414 32.9135807,238.513668 31.6147461,239.21875 C30.3159115,239.923832 28.9289625,240.452635 27.4538574,240.805176 C25.9787524,241.157717 24.4804764,241.333984 22.9589844,241.333984 C20.2128769,241.333984 17.6801874,240.87476 15.3608398,239.956299 C13.0414923,239.037837 10.940195,237.57667 9.05688477,235.572754 C7.17357457,233.568838 5.73560067,231.193861 4.74291992,228.447754 C3.75023918,225.701646 3.25390625,222.834976 3.25390625,219.847656 C3.25390625,216.841782 3.75023918,214.002943 4.74291992,211.331055 C5.73560067,208.659166 7.12718831,206.330576 8.91772461,204.345215 C10.7082609,202.359853 12.8420286,200.801275 15.3190918,199.669434 C17.796155,198.537592 20.4819191,197.97168 23.3764648,197.97168 C26.0483532,197.97168 28.3444728,198.352047 30.2648926,199.112793 C32.1853123,199.873539 33.8273858,200.796625 35.1911621,201.88208 C36.5549385,202.967535 37.6450154,204.001948 38.4614258,204.985352 L41.1611328,204.985352 L41.1611328,209.939453 L35.1772461,209.939453 C33.9340758,207.824208 32.2873638,206.154303 30.2370605,204.929688 C28.1867573,203.705072 25.8906377,203.111328 23.3486328,203.148438 C21.2148331,203.148438 19.2573331,203.603023 17.4760742,204.512207 C15.6948153,205.421391 14.1687075,206.645988 12.8977051,208.186035 C11.6267026,209.726082 10.6386754,211.498037 9.93359375,213.501953 C9.2285121,215.505869 8.87597656,217.621083 8.87597656,219.847656 C8.87597656,222.315442 9.2656211,224.606923 10.0449219,226.722168 C10.8242226,228.837413 11.8168885,230.553704 13.0229492,231.871094 C14.2290099,233.188483 15.7180087,234.27856 17.4899902,235.141357 C19.2619718,236.004155 21.2241103,236.435547 23.3764648,236.435547 C26.9389827,236.435547 29.8613167,235.568124 32.1435547,233.833252 C34.4257927,232.09838 36.0214798,229.394061 36.9306641,225.720215 L25.1298828,225.720215 L25.1298828,220.933105 L42.9702148,220.933105 L42.9702148,241.166992 L37.793457,241.166992 Z M70.1621094,241.834961 C67.2490089,241.834961 64.5864378,241.292242 62.1743164,240.206787 C59.762195,239.121332 57.6098727,237.57667 55.7172852,235.572754 C53.8246976,233.568838 52.3867237,231.193861 51.4033203,228.447754 C50.419917,225.701646 49.9282227,222.85353 49.9282227,219.90332 C49.9282227,216.860336 50.4245556,214.002943 51.4172363,211.331055 C52.4099171,208.659166 53.8015047,206.335215 55.592041,204.359131 C57.3825773,202.383047 59.516345,200.824469 61.9934082,199.68335 C64.4704714,198.542231 67.1933445,197.97168 70.1621094,197.97168 C73.149429,197.97168 75.886218,198.542231 78.3725586,199.68335 C80.8588992,200.824469 82.9926669,202.383047 84.7739258,204.359131 C86.5551847,206.335215 87.9374951,208.659166 88.9208984,211.331055 C89.9043018,214.002943 90.3959961,216.860336 90.3959961,219.90332 C90.3959961,222.946304 89.8996632,225.799059 88.9069824,228.46167 C87.9143017,231.124281 86.522714,233.448232 84.7321777,235.433594 C82.9416414,237.418955 80.8078737,238.982172 78.3308105,240.123291 C75.8537474,241.26441 73.1308742,241.834961 70.1621094,241.834961 L70.1621094,241.834961 Z M70.1621094,236.658203 C72.3701282,236.658203 74.3693758,236.203618 76.1599121,235.294434 C77.9504484,234.385249 79.4765562,233.165291 80.7382812,231.634521 C82.0000063,230.103752 82.9741177,228.327159 83.6606445,226.304688 C84.3471714,224.282216 84.6904297,222.148449 84.6904297,219.90332 C84.6904297,217.602528 84.314701,215.380626 83.5632324,213.237549 C82.8117638,211.094472 81.7634345,209.280769 80.4182129,207.796387 C79.0729913,206.312004 77.5097745,205.166264 75.7285156,204.359131 C73.9472567,203.551998 72.0918065,203.148438 70.1621094,203.148438 C67.9540905,203.148438 65.9502043,203.603023 64.1503906,204.512207 C62.3505769,205.421391 60.8198305,206.64135 59.5581055,208.172119 C58.2963804,209.702889 57.3222691,211.484121 56.6357422,213.515869 C55.9492153,215.547618 55.605957,217.676747 55.605957,219.90332 C55.605957,222.50099 55.9863243,224.815664 56.7470703,226.847412 C57.5078163,228.879161 58.514398,230.56762 59.7668457,231.912842 C61.0192934,233.258063 62.5129308,234.385249 64.2478027,235.294434 C65.9826747,236.203618 67.9540905,236.658203 70.1621094,236.658203 L70.1621094,236.658203 Z M97.2148438,198.806641 L110.908203,198.806641 L110.908203,203.621582 L106.677734,203.621582 L106.677734,236.212891 L121.233887,236.212891 C121.530763,236.212891 121.827635,236.143311 122.124512,236.00415 C122.421388,235.86499 122.690428,235.684083 122.931641,235.461426 C123.172853,235.238768 123.367675,234.983644 123.516113,234.696045 C123.664552,234.408446 123.73877,234.116212 123.73877,233.819336 L123.73877,228.503418 L129.026855,228.503418 L129.026855,241 L97.2148438,241 L97.2148438,236.212891 L101.222656,236.212891 L101.222656,203.621582 L97.2148438,203.621582 L97.2148438,198.806641 Z M133.285156,198.806641 L148.982422,198.806641 C150.912119,198.806641 152.749015,199.057126 154.493164,199.558105 C156.237313,200.059085 157.860832,200.764156 159.36377,201.67334 C160.866707,202.582524 162.230463,203.672601 163.455078,204.943604 C164.679694,206.214606 165.723384,207.629387 166.586182,209.187988 C167.448979,210.74659 168.112302,212.421134 168.576172,214.21167 C169.040041,216.002206 169.271973,217.862295 169.271973,219.791992 C169.271973,221.758799 169.040041,223.642081 168.576172,225.441895 C168.112302,227.241708 167.448979,228.930168 166.586182,230.507324 C165.723384,232.084481 164.679694,233.517816 163.455078,234.807373 C162.230463,236.09693 160.866707,237.200923 159.36377,238.119385 C157.860832,239.037846 156.237313,239.747556 154.493164,240.248535 C152.749015,240.749514 150.912119,241 148.982422,241 L133.285156,241 L133.285156,236.212891 L137.292969,236.212891 L137.292969,203.621582 L133.285156,203.621582 L133.285156,198.806641 Z M142.748047,203.621582 L142.748047,236.212891 L149.316406,236.212891 C151.264658,236.212891 153.096915,235.786137 154.813232,234.932617 C156.52955,234.079097 158.027826,232.914802 159.308105,231.439697 C160.588385,229.964592 161.599606,228.229746 162.341797,226.235107 C163.083988,224.240469 163.455078,222.092785 163.455078,219.791992 C163.455078,217.528309 163.083988,215.413096 162.341797,213.446289 C161.599606,211.479482 160.588385,209.76783 159.308105,208.311279 C158.027826,206.854729 156.52955,205.708989 154.813232,204.874023 C153.096915,204.039058 151.264658,203.621582 149.316406,203.621582 L142.748047,203.621582 Z M173.697266,198.806641 L203.922852,198.806641 L203.922852,210.746582 L198.217285,210.746582 L198.217285,203.621582 L183.160156,203.621582 L183.160156,217.120117 L195.82373,217.120117 L195.82373,221.907227 L183.160156,221.907227 L183.160156,236.212891 L198.217285,236.212891 L198.217285,229.087891 L203.922852,229.087891 L203.922852,241 L173.697266,241 L173.697266,236.212891 L177.705078,236.212891 L177.705078,203.621582 L173.697266,203.621582 L173.697266,198.806641 Z M235.595703,198.806641 L249.289063,198.806641 L249.289063,203.621582 L245.69873,203.621582 L245.69873,241 L238.57373,241 L218.952148,206.015137 L218.952148,236.212891 L223.293945,236.212891 L223.293945,241 L209.600586,241 L209.600586,236.212891 L213.49707,236.212891 L213.49707,203.621582 L209.489258,203.621582 L209.489258,198.750977 L220.844727,198.750977 L240.104492,233.401855 L240.327148,232.065918 L240.327148,203.621582 L235.595703,203.621582 L235.595703,198.806641 Z M287.919922,206.599609 C287.326169,205.783199 286.672123,205.156985 285.957764,204.720947 C285.243405,204.28491 284.459477,203.950929 283.605957,203.718994 C282.752437,203.487059 281.89893,203.371094 281.04541,203.371094 C279.635247,203.371094 278.401372,203.533446 277.34375,203.858154 C276.286128,204.182863 275.409427,204.623532 274.713623,205.180176 C274.017819,205.736819 273.493654,206.386227 273.141113,207.128418 C272.788572,207.870609 272.612305,208.649898 272.612305,209.466309 C272.612305,210.690924 272.83032,211.678951 273.266357,212.43042 C273.702395,213.181889 274.254391,213.78491 274.922363,214.239502 C275.590335,214.694094 276.327877,215.051268 277.13501,215.311035 C277.942143,215.570802 278.716793,215.830565 279.458984,216.090332 L285.081055,217.927246 C286.76954,218.465335 288.258538,219.077633 289.548096,219.76416 C290.837653,220.450687 291.918453,221.262446 292.790527,222.199463 C293.662602,223.136479 294.325925,224.217279 294.780518,225.441895 C295.23511,226.66651 295.462402,228.085929 295.462402,229.700195 C295.462402,231.444345 295.105228,233.058586 294.390869,234.542969 C293.67651,236.027351 292.679206,237.316889 291.398926,238.411621 C290.118646,239.506353 288.592538,240.364499 286.820557,240.986084 C285.048575,241.607669 283.104991,241.918457 280.989746,241.918457 C278.818837,241.918457 276.963387,241.67261 275.42334,241.180908 C273.883293,240.689207 272.589117,240.030522 271.540771,239.204834 C270.492426,238.379146 269.652835,237.437505 269.021973,236.379883 C268.39111,235.32226 267.899416,234.236822 267.546875,233.123535 L265.431641,233.123535 L265.431641,228.336426 L272.445312,228.336426 C272.445312,230.396006 272.663328,231.852535 273.099365,232.706055 C273.535403,233.559575 274.143063,234.269284 274.922363,234.835205 C275.701664,235.401126 276.629389,235.827879 277.705566,236.115479 C278.781744,236.403078 279.969232,236.546875 281.268066,236.546875 C282.529791,236.546875 283.666255,236.398439 284.67749,236.101562 C285.688726,235.804686 286.55151,235.373294 287.265869,234.807373 C287.980228,234.241452 288.527586,233.554936 288.907959,232.747803 C289.288332,231.94067 289.478516,231.026861 289.478516,230.006348 C289.478516,228.874506 289.241946,227.914311 288.768799,227.125732 C288.295652,226.337154 287.687992,225.664554 286.945801,225.10791 C286.20361,224.551267 285.39185,224.096681 284.510498,223.744141 C283.629146,223.3916 282.780278,223.085451 281.963867,222.825684 L275.868652,221.100098 C274.532708,220.691892 273.31275,220.172366 272.20874,219.541504 C271.104731,218.910641 270.158451,218.14063 269.369873,217.231445 C268.581295,216.322261 267.973635,215.260016 267.546875,214.044678 C267.120115,212.82934 266.906738,211.423836 266.906738,209.828125 C266.906738,208.213859 267.222165,206.701667 267.853027,205.291504 C268.48389,203.881341 269.411615,202.647466 270.63623,201.589844 C271.860846,200.532221 273.359122,199.701907 275.131104,199.098877 C276.903085,198.495847 278.930164,198.194336 281.212402,198.194336 C282.71534,198.194336 284.102289,198.370604 285.373291,198.723145 C286.644293,199.075685 287.794673,199.572018 288.824463,200.212158 C289.854253,200.852298 290.763424,201.62231 291.552002,202.522217 C292.34058,203.422124 293.003904,204.410151 293.541992,205.486328 L295.629395,205.486328 L295.629395,210.273438 L288.810547,210.273438 C288.810547,208.640617 288.513675,207.41602 287.919922,206.599609 L287.919922,206.599609 Z M309.489746,236.212891 L313.358398,236.212891 L313.358398,203.371094 L303.728516,203.371094 L303.728516,209.939453 L298.022949,209.939453 L298.022949,198.806641 L335.651855,198.806641 L335.651855,209.939453 L329.946289,209.939453 L329.946289,203.371094 L318.813477,203.371094 L318.813477,236.212891 L323.155273,236.212891 L323.155273,241 L309.489746,241 L309.489746,236.212891 Z M361.925293,236.212891 L365.432129,236.212891 L362.092285,226.638672 L345.866211,226.638672 L342.609863,236.212891 L346.95166,236.212891 L346.95166,241 L333.258301,241 L333.258301,236.212891 L336.932129,236.212891 L350.068848,198.806641 L358.279297,198.806641 L371.388184,236.212891 L375.618652,236.212891 L375.618652,241 L361.925293,241 L361.925293,236.212891 Z M347.452637,222.018555 L360.478027,222.018555 L353.909668,203.148438 L347.452637,222.018555 Z M383.80127,236.212891 L387.669922,236.212891 L387.669922,203.371094 L378.040039,203.371094 L378.040039,209.939453 L372.334473,209.939453 L372.334473,198.806641 L409.963379,198.806641 L409.963379,209.939453 L404.257812,209.939453 L404.257812,203.371094 L393.125,203.371094 L393.125,236.212891 L397.466797,236.212891 L397.466797,241 L383.80127,241 L383.80127,236.212891 Z M415.084473,198.806641 L445.310059,198.806641 L445.310059,210.746582 L439.604492,210.746582 L439.604492,203.621582 L424.547363,203.621582 L424.547363,217.120117 L437.210938,217.120117 L437.210938,221.907227 L424.547363,221.907227 L424.547363,236.212891 L439.604492,236.212891 L439.604492,229.087891 L445.310059,229.087891 L445.310059,241 L415.084473,241 L415.084473,236.212891 L419.092285,236.212891 L419.092285,203.621582 L415.084473,203.621582 L415.084473,198.806641 Z M514.66748,198.806641 L528.36084,198.806641 L528.36084,203.621582 L524.687012,203.621582 L512.635742,241 L504.119141,241 L492.680176,204.233887 L482.131836,241 L473.69873,241 L461.396973,203.621582 L457.66748,203.621582 L457.66748,198.806641 L471.36084,198.806641 L471.36084,203.621582 L467.687012,203.621582 L477.901367,236.045898 L488.672363,198.806641 L496.994141,198.806641 L508.460938,236.045898 L518.870117,203.621582 L514.66748,203.621582 L514.66748,198.806641 Z M552.880859,236.212891 L556.387695,236.212891 L553.047852,226.638672 L536.821777,226.638672 L533.56543,236.212891 L537.907227,236.212891 L537.907227,241 L524.213867,241 L524.213867,236.212891 L527.887695,236.212891 L541.024414,198.806641 L549.234863,198.806641 L562.34375,236.212891 L566.574219,236.212891 L566.574219,241 L552.880859,241 L552.880859,236.212891 Z M538.408203,222.018555 L551.433594,222.018555 L544.865234,203.148438 L538.408203,222.018555 Z M570.83252,198.806641 L588.394531,198.806641 C590.268564,198.806641 591.998771,199.052488 593.585205,199.544189 C595.171639,200.035891 596.544672,200.759517 597.704346,201.715088 C598.864019,202.670659 599.768551,203.862786 600.417969,205.291504 C601.067386,206.720222 601.39209,208.362295 601.39209,210.217773 C601.39209,211.275396 601.201906,212.319087 600.821533,213.348877 C600.44116,214.378667 599.912357,215.334224 599.235107,216.215576 C598.557858,217.096928 597.755376,217.880856 596.827637,218.567383 C595.899898,219.25391 594.888677,219.782713 593.793945,220.153809 C594.257815,220.357911 594.726316,220.650145 595.199463,221.030518 C595.67261,221.410891 596.117918,221.874753 596.5354,222.422119 C596.952883,222.969485 597.33325,223.591061 597.676514,224.286865 C598.019777,224.982669 598.293456,225.729488 598.497559,226.527344 L600.835449,235.711914 L604.481445,235.711914 L604.537109,241 L596.32666,241 L593.181641,228.169434 C592.606442,225.868641 591.729742,224.175543 590.551514,223.090088 C589.373285,222.004633 587.763682,221.461914 585.722656,221.461914 L580.29541,221.461914 L580.29541,236.212891 L584.525879,236.212891 L584.525879,241 L570.83252,241 L570.83252,236.212891 L574.840332,236.212891 L574.840332,203.621582 L570.83252,203.621582 L570.83252,198.806641 Z M580.29541,203.621582 L580.29541,216.897461 L588.394531,216.897461 C589.452154,216.897461 590.421626,216.758302 591.302979,216.47998 C592.184331,216.201659 592.945065,215.784182 593.585205,215.227539 C594.225345,214.670896 594.726317,213.97974 595.088135,213.154053 C595.449953,212.328365 595.630859,211.36817 595.630859,210.273438 C595.630859,208.176747 595.000006,206.543951 593.738281,205.375 C592.476556,204.206049 590.47267,203.621582 587.726562,203.621582 L580.29541,203.621582 Z M611.578613,198.806641 L629.140625,198.806641 C631.014658,198.806641 632.744865,199.052488 634.331299,199.544189 C635.917733,200.035891 637.290766,200.759517 638.450439,201.715088 C639.610113,202.670659 640.514645,203.862786 641.164062,205.291504 C641.81348,206.720222 642.138184,208.362295 642.138184,210.217773 C642.138184,211.275396 641.948,212.319087 641.567627,213.348877 C641.187254,214.378667 640.658451,215.334224 639.981201,216.215576 C639.303952,217.096928 638.501469,217.880856 637.57373,218.567383 C636.645991,219.25391 635.634771,219.782713 634.540039,220.153809 C635.003909,220.357911 635.47241,220.650145 635.945557,221.030518 C636.418704,221.410891 636.864012,221.874753 637.281494,222.422119 C637.698977,222.969485 638.079344,223.591061 638.422607,224.286865 C638.765871,224.982669 639.03955,225.729488 639.243652,226.527344 L641.581543,235.711914 L645.227539,235.711914 L645.283203,241 L637.072754,241 L633.927734,228.169434 C633.352536,225.868641 632.475836,224.175543 631.297607,223.090088 C630.119379,222.004633 628.509776,221.461914 626.46875,221.461914 L621.041504,221.461914 L621.041504,236.212891 L625.271973,236.212891 L625.271973,241 L611.578613,241 L611.578613,236.212891 L615.586426,236.212891 L615.586426,203.621582 L611.578613,203.621582 L611.578613,198.806641 Z M621.041504,203.621582 L621.041504,216.897461 L629.140625,216.897461 C630.198247,216.897461 631.16772,216.758302 632.049072,216.47998 C632.930424,216.201659 633.691159,215.784182 634.331299,215.227539 C634.971439,214.670896 635.47241,213.97974 635.834229,213.154053 C636.196047,212.328365 636.376953,211.36817 636.376953,210.273438 C636.376953,208.176747 635.7461,206.543951 634.484375,205.375 C633.22265,204.206049 631.218764,203.621582 628.472656,203.621582 L621.041504,203.621582 Z M652.324707,198.806641 L665.79541,198.806641 L665.79541,203.621582 L661.787598,203.621582 L661.787598,236.212891 L665.79541,236.212891 L665.79541,241 L652.324707,241 L652.324707,236.212891 L656.33252,236.212891 L656.33252,203.621582 L652.324707,203.621582 L652.324707,198.806641 Z M691.233887,241.834961 C688.320786,241.834961 685.658215,241.292242 683.246094,240.206787 C680.833972,239.121332 678.68165,237.57667 676.789062,235.572754 C674.896475,233.568838 673.458501,231.193861 672.475098,228.447754 C671.491694,225.701646 671,222.85353 671,219.90332 C671,216.860336 671.496333,214.002943 672.489014,211.331055 C673.481694,208.659166 674.873282,206.335215 676.663818,204.359131 C678.454355,202.383047 680.588122,200.824469 683.065186,199.68335 C685.542249,198.542231 688.265122,197.97168 691.233887,197.97168 C694.221206,197.97168 696.957995,198.542231 699.444336,199.68335 C701.930676,200.824469 704.064444,202.383047 705.845703,204.359131 C707.626962,206.335215 709.009272,208.659166 709.992676,211.331055 C710.976079,214.002943 711.467773,216.860336 711.467773,219.90332 C711.467773,222.946304 710.971441,225.799059 709.97876,228.46167 C708.986079,231.124281 707.594491,233.448232 705.803955,235.433594 C704.013419,237.418955 701.879651,238.982172 699.402588,240.123291 C696.925525,241.26441 694.202652,241.834961 691.233887,241.834961 L691.233887,241.834961 Z M691.233887,236.658203 C693.441906,236.658203 695.441153,236.203618 697.231689,235.294434 C699.022226,234.385249 700.548334,233.165291 701.810059,231.634521 C703.071784,230.103752 704.045895,228.327159 704.732422,226.304688 C705.418949,224.282216 705.762207,222.148449 705.762207,219.90332 C705.762207,217.602528 705.386478,215.380626 704.63501,213.237549 C703.883541,211.094472 702.835212,209.280769 701.48999,207.796387 C700.144769,206.312004 698.581552,205.166264 696.800293,204.359131 C695.019034,203.551998 693.163584,203.148438 691.233887,203.148438 C689.025868,203.148438 687.021982,203.603023 685.222168,204.512207 C683.422354,205.421391 681.891608,206.64135 680.629883,208.172119 C679.368158,209.702889 678.394046,211.484121 677.70752,213.515869 C677.020993,215.547618 676.677734,217.676747 676.677734,219.90332 C676.677734,222.50099 677.058102,224.815664 677.818848,226.847412 C678.579594,228.879161 679.586175,230.56762 680.838623,231.912842 C682.091071,233.258063 683.584708,234.385249 685.31958,235.294434 C687.054452,236.203618 689.025868,236.658203 691.233887,236.658203 L691.233887,236.658203 Z M718.286621,198.806641 L735.848633,198.806641 C737.722666,198.806641 739.452873,199.052488 741.039307,199.544189 C742.62574,200.035891 743.998773,200.759517 745.158447,201.715088 C746.318121,202.670659 747.222653,203.862786 747.87207,205.291504 C748.521488,206.720222 748.846191,208.362295 748.846191,210.217773 C748.846191,211.275396 748.656008,212.319087 748.275635,213.348877 C747.895262,214.378667 747.366458,215.334224 746.689209,216.215576 C746.01196,217.096928 745.209477,217.880856 744.281738,218.567383 C743.353999,219.25391 742.342779,219.782713 741.248047,220.153809 C741.711916,220.357911 742.180418,220.650145 742.653564,221.030518 C743.126711,221.410891 743.572019,221.874753 743.989502,222.422119 C744.406985,222.969485 744.787352,223.591061 745.130615,224.286865 C745.473879,224.982669 745.747558,225.729488 745.95166,226.527344 L748.289551,235.711914 L751.935547,235.711914 L751.991211,241 L743.780762,241 L740.635742,228.169434 C740.060544,225.868641 739.183844,224.175543 738.005615,223.090088 C736.827387,222.004633 735.217784,221.461914 733.176758,221.461914 L727.749512,221.461914 L727.749512,236.212891 L731.97998,236.212891 L731.97998,241 L718.286621,241 L718.286621,236.212891 L722.294434,236.212891 L722.294434,203.621582 L718.286621,203.621582 L718.286621,198.806641 Z M727.749512,203.621582 L727.749512,216.897461 L735.848633,216.897461 C736.906255,216.897461 737.875728,216.758302 738.75708,216.47998 C739.638432,216.201659 740.399167,215.784182 741.039307,215.227539 C741.679447,214.670896 742.180418,213.97974 742.542236,213.154053 C742.904055,212.328365 743.084961,211.36817 743.084961,210.273438 C743.084961,208.176747 742.454108,206.543951 741.192383,205.375 C739.930658,204.206049 737.926772,203.621582 735.180664,203.621582 L727.749512,203.621582 Z M779.767578,206.599609 C779.173825,205.783199 778.519779,205.156985 777.80542,204.720947 C777.091061,204.28491 776.307133,203.950929 775.453613,203.718994 C774.600093,203.487059 773.746586,203.371094 772.893066,203.371094 C771.482903,203.371094 770.249029,203.533446 769.191406,203.858154 C768.133784,204.182863 767.257084,204.623532 766.561279,205.180176 C765.865475,205.736819 765.34131,206.386227 764.98877,207.128418 C764.636229,207.870609 764.459961,208.649898 764.459961,209.466309 C764.459961,210.690924 764.677976,211.678951 765.114014,212.43042 C765.550051,213.181889 766.102047,213.78491 766.77002,214.239502 C767.437992,214.694094 768.175533,215.051268 768.982666,215.311035 C769.789799,215.570802 770.564449,215.830565 771.306641,216.090332 L776.928711,217.927246 C778.617196,218.465335 780.106195,219.077633 781.395752,219.76416 C782.685309,220.450687 783.766109,221.262446 784.638184,222.199463 C785.510258,223.136479 786.173582,224.217279 786.628174,225.441895 C787.082766,226.66651 787.310059,228.085929 787.310059,229.700195 C787.310059,231.444345 786.952884,233.058586 786.238525,234.542969 C785.524166,236.027351 784.526862,237.316889 783.246582,238.411621 C781.966302,239.506353 780.440194,240.364499 778.668213,240.986084 C776.896231,241.607669 774.952647,241.918457 772.837402,241.918457 C770.666493,241.918457 768.811043,241.67261 767.270996,241.180908 C765.730949,240.689207 764.436773,240.030522 763.388428,239.204834 C762.340083,238.379146 761.500491,237.437505 760.869629,236.379883 C760.238766,235.32226 759.747072,234.236822 759.394531,233.123535 L757.279297,233.123535 L757.279297,228.336426 L764.292969,228.336426 C764.292969,230.396006 764.510984,231.852535 764.947021,232.706055 C765.383059,233.559575 765.990719,234.269284 766.77002,234.835205 C767.54932,235.401126 768.477045,235.827879 769.553223,236.115479 C770.6294,236.403078 771.816888,236.546875 773.115723,236.546875 C774.377448,236.546875 775.513911,236.398439 776.525146,236.101562 C777.536382,235.804686 778.399166,235.373294 779.113525,234.807373 C779.827884,234.241452 780.375242,233.554936 780.755615,232.747803 C781.135988,231.94067 781.326172,231.026861 781.326172,230.006348 C781.326172,228.874506 781.089602,227.914311 780.616455,227.125732 C780.143308,226.337154 779.535648,225.664554 778.793457,225.10791 C778.051266,224.551267 777.239506,224.096681 776.358154,223.744141 C775.476802,223.3916 774.627934,223.085451 773.811523,222.825684 L767.716309,221.100098 C766.380364,220.691892 765.160406,220.172366 764.056396,219.541504 C762.952387,218.910641 762.006107,218.14063 761.217529,217.231445 C760.428951,216.322261 759.821291,215.260016 759.394531,214.044678 C758.967771,212.82934 758.754395,211.423836 758.754395,209.828125 C758.754395,208.213859 759.069821,206.701667 759.700684,205.291504 C760.331546,203.881341 761.259271,202.647466 762.483887,201.589844 C763.708502,200.532221 765.206778,199.701907 766.97876,199.098877 C768.750741,198.495847 770.777821,198.194336 773.060059,198.194336 C774.562996,198.194336 775.949945,198.370604 777.220947,198.723145 C778.49195,199.075685 779.642329,199.572018 780.672119,200.212158 C781.701909,200.852298 782.61108,201.62231 783.399658,202.522217 C784.188236,203.422124 784.85156,204.410151 785.389648,205.486328 L787.477051,205.486328 L787.477051,210.273438 L780.658203,210.273438 C780.658203,208.640617 780.361331,207.41602 779.767578,206.599609 L779.767578,206.599609 Z" id="GOLDEN-STATE-WARRIOR" fill="#FFFFFF"></path>
            </g>
        </g>
    </g>
</svg>