<?xml version="1.0" encoding="UTF-8" standalone="no"?>
<svg width="239px" height="158px" viewBox="0 0 239 158" version="1.1" xmlns="http://www.w3.org/2000/svg" xmlns:xlink="http://www.w3.org/1999/xlink">
    <defs></defs>
    <g id="Page-1" stroke="none" stroke-width="1" fill="none" fill-rule="evenodd">
        <g id="Court" transform="translate(119.500000, 78.500000) rotate(-90.000000) translate(-119.500000, -78.500000) translate(40.500000, -40.500000)" stroke="#006BB6">
            <rect id="Key" x="0.5" y="76.5" width="100" height="84"></rect>
            <path d="M1.13686838e-13,0.5 L76,0.5 C76,0.5 157,30.0623679 157,117.5 C157,205.432347 76,237.5 76,237.5 L1.13686838e-13,237.5 L1.13686838e-13,0.5 Z" id="Path-1"></path>
            <g id="Circle" transform="translate(100.000000, 85.000000)">
                <path d="M33,1 C15.326888,1 1,15.326888 1,33 C1,50.673112 15.326888,65 33,65 L33,1 Z" id="Oval-1-Copy" transform="translate(17.000000, 33.000000) rotate(-180.000000) translate(-17.000000, -33.000000) "></path>
            </g>
            <path d="M22.009443,95.5 L34.5053016,95.5 C34.5053016,95.5 50.4999988,99 50.5,117.5 C50.5000012,136 34.5053019,140.5 34.5053019,140.5 L21.5,140.5" id="Path-3"></path>
            <rect id="Rectangle-2-Copy" x="0.5" y="86.5" width="100" height="63"></rect>
        </g>
    </g>
</svg>